# xmcd
#
# Track frame offsets: 
#        150
#        12794
#        27041
#        39515
#        53678
#        67214
#        78242
#        89630
#        99936
#        110506
#        123181
#        133580
#        145205
#        160958
#        171905
#        184702
#        198352
#        209972
#        224465
#
# Disc length: 3143 seconds
#
# Revision: 0
# Processed by: cddbd v1.5.2PL0 Copyright (c) Steve Scherf et al.
# Submitted via: ExactAudioCopyFreeDBPlugin 1.0
#
DISCID=110c4513
DTITLE=Various Artist - Down The Overlander's Trail
DYEAR=2012
DGENRE=Country
TTITLE0=Art Leonard - Can I Sleep In Your Barn Tonight, Mister?
TTITLE1=The Hillbilly Singers  - When I Get To The End of The Way
TTITLE2=The Singing Stockmen - Hillbilly Valley
TTITLE3=Art Leonard - The Face On The Barroom Floor
TTITLE4=Art Leonard and Freddie Witt - They Cut Down the Old Pine Tree
TTITLE4=
TTITLE5=Len Maurice - The Big Rock Candy Mountain 
TTITLE6=P. C. Spouse - Cuckoo Waltz 
TTITLE7=Tex Morton and Harry Thompson - South American Joe 
TTITLE8=Tex Morton and Sister Dorrie - Hand Me Down My Walking Cane 
TTITLE9=Tex Morton - Mandrake 
TTITLE10=Tex Morton -  Along the Stock Route 
TTITLE11=Smilin’ Billy Blinkhorn -  Poor Ned Kelly 
TTITLE12=Jenny Howard - Oh Johnny, Oh Johnny Oh 
TTITLE13=Bob Dyer - I Never See Maggie Alone 
TTITLE14=Shirley Thoms - The Cowgirl Yodel 
TTITLE15=Shirley Thoms - Night Time On The Prairie 
TTITLE16=June Holms - Happy Yodelling Cowgirl 
TTITLE17=Gordon Parsons - The Australian Bushman 
TTITLE18=The Two Barnstormers - Mary Jane Waltz 
EXTD=
EXTT0=
EXTT1=
EXTT2=
EXTT3=
EXTT4=
EXTT5=
EXTT6=
EXTT7=
EXTT8=
EXTT9=
EXTT10=
EXTT11=
EXTT12=
EXTT13=
EXTT14=
EXTT15=
EXTT16=
EXTT17=
EXTT18=
PLAYORDER=
